<svg xmlns="http://www.w3.org/2000/svg" version="1.1" xmlns:xlink="http://www.w3.org/1999/xlink" xmlns:svgjs="http://svgjs.dev/svgjs" width="1000" height="1133" viewBox="0 0 1000 1133"><g transform="matrix(1,0,0,1,0.19515463401700117,0.45870445344121435)"><svg viewBox="0 0 218 247" data-background-color="#ffffff" preserveAspectRatio="xMidYMid meet" height="1133" width="1000" xmlns="http://www.w3.org/2000/svg" xmlns:xlink="http://www.w3.org/1999/xlink"><g id="tight-bounds" transform="matrix(1,0,0,1,-0.04254371021571046,-0.09999999999999432)"><svg viewBox="0 0 218.08508742043142 247.2" height="247.2" width="218.08508742043142"><g><svg viewBox="0 0 395.52000000000004 448.32292366470233" height="247.2" width="218.08508742043142"><g transform="matrix(1,0,0,1,0,277.08155264846664)"><svg viewBox="0 0 395.52000000000004 171.24137101623572" height="171.24137101623572" width="395.52000000000004"><g id="textblocktransform"><svg viewBox="0 0 395.52000000000004 171.24137101623572" height="171.24137101623572" width="395.52000000000004" id="textblock"><g><svg viewBox="0 0 395.52000000000004 171.24137101623572" height="171.24137101623572" width="395.52000000000004"><g transform="matrix(1,0,0,1,0,0)"><svg width="395.52000000000004" viewBox="2.4 -36 83.14999999999999 36" height="171.24137101623572" data-palette-color="#113f67"><path d="M24.1-4.55L24.3-4.55 33.95-36 45.65-36 45.65-33.85 41.45-32.8 41.45-3.2 45.65-2.15 45.65 0 32.8 0 32.8-2.15 36.45-3.2 36.45-32.75 26.15 0 20.25 0 9.85-32.75 9.85-3.2 13.5-2.15 13.5 0 2.4 0 2.4-2.15 6.6-3.2 6.6-32.8 2.4-33.85 2.4-36 14.3-36 24.1-4.55ZM64.1-33.85L59.9-32.8 59.9-18.3 73.9-32.8 69.35-33.85 69.35-36 82.5-36 82.5-33.85 78.1-32.8 66.4-21.2 81.35-3.1 85.55-2.15 85.55 0 71.6 0 71.6-2.15 74.9-3.15 63.05-17.8 59.9-14.8 59.9-3.2 64.1-2.15 64.1 0 50.2 0 50.2-2.15 54.9-3.2 54.9-32.8 50.2-33.85 50.2-36 64.1-36 64.1-33.85Z" opacity="1" transform="matrix(1,0,0,1,0,0)" fill="#113f67" class="wordmark-text-0" data-fill-palette-color="primary" id="text-0"></path></svg></g></svg></g></svg></g></svg></g><g transform="matrix(1,0,0,1,79.43221262778111,0)"><svg viewBox="0 0 236.6555747444378 236.65557474443779" height="236.65557474443779" width="236.6555747444378"><g><svg xmlns="http://www.w3.org/2000/svg" xmlns:xlink="http://www.w3.org/1999/xlink" version="1.1" x="0" y="0" viewBox="0.5 0.5 47.1 47.099999999999994" enable-background="new 0 0 48 48" xml:space="preserve" height="236.65557474443779" width="236.6555747444378" class="icon-icon-0" data-fill-palette-color="accent" id="icon-0"><g fill="#87c0cd" data-fill-palette-color="accent"><path d="M45.5 0.5H2.5c-1.1 0-2 0.9-2 2v10.8h47V2.5C47.5 1.4 46.6 0.5 45.5 0.5zM11.7 8.8c-1.1 0-2-0.9-2-1.9v0c0-1.1 0.9-2 2-2s2 0.9 2 2S12.7 8.8 11.7 8.8zM22.7 8.8c-1.1 0-2-0.9-2-1.9v0c0-1.1 0.9-2 2-2s2 0.9 2 2S23.8 8.8 22.7 8.8z" fill="#87c0cd" data-fill-palette-color="accent"></path><g fill="#87c0cd" data-fill-palette-color="accent"><path d="M24 28.4c-2.2 0-4 1.8-4 4s1.8 4 4 4 4-1.8 4-4S26.2 28.4 24 28.4z" fill="#87c0cd" data-fill-palette-color="accent"></path><path d="M0.5 17.2v28.4c0 1.1 0.9 2 2 2h43.1c1.1 0 2-0.9 2-2V17.2H0.5zM31.8 34.3h-0.2c-0.2 0.7-0.5 1.4-0.8 2l0.2 0.2c0.8 0.8 0.8 2 0 2.8-0.4 0.4-0.9 0.6-1.4 0.6-0.5 0-1-0.2-1.4-0.6L28 39.1c-0.6 0.4-1.3 0.7-2 0.8v0.2c0 1.1-0.9 2-2 2s-2-0.9-2-2v-0.2c-0.7-0.2-1.4-0.5-2-0.8l-0.2 0.2c-0.4 0.4-0.9 0.6-1.4 0.6-0.5 0-1-0.2-1.4-0.6-0.8-0.8-0.8-2 0-2.8l0.2-0.2c-0.4-0.6-0.7-1.3-0.8-2h-0.2c-1.1 0-2-0.9-2-2s0.9-2 2-2h0.2c0.2-0.7 0.5-1.4 0.8-2l-0.2-0.2c-0.8-0.8-0.8-2 0-2.8 0.8-0.8 2-0.8 2.8 0l0.2 0.2c0.6-0.4 1.3-0.7 2-0.8v-0.2c0-1.1 0.9-2 2-2s2 0.9 2 2v0.2c0.7 0.2 1.4 0.5 2 0.8l0.2-0.2c0.8-0.8 2-0.8 2.8 0 0.8 0.8 0.8 2 0 2.8l-0.2 0.2c0.4 0.6 0.7 1.3 0.8 2h0.2c1.1 0 2 0.9 2 2S32.9 34.3 31.8 34.3z" fill="#87c0cd" data-fill-palette-color="accent"></path></g></g></svg></g></svg></g><g></g></svg></g><defs></defs></svg><rect width="218.08508742043142" height="247.2" fill="none" stroke="none" visibility="hidden"></rect></g></svg></g></svg>